<svg width="561" height="565" viewBox="0 0 561 565" fill="none" xmlns="http://www.w3.org/2000/svg">
<g filter="url(#filter0_d_35_348)">
<path d="M29.9763 1.52258C22.8165 1.10894 20.8001 1.03852 20.6911 1.03472L20.5828 4.13865C20.6714 5.59515 20.3418 6.20143 20.4346 8.38099C20.8732 11.8722 19.6509 15.2826 20.0889 18.2798C20.5176 21.2125 19.087 27.5685 19.6116 31.9495C20.0227 35.3834 19.1537 41.4092 19.1671 44.6765C19.1907 50.4262 18.9787 59.5956 17.9984 78.1438C17.7525 82.798 17.7845 95.4827 16.8462 111.14C15.9079 126.797 16.0304 143.05 15.1672 159.219C14.304 175.389 14.4268 180.432 14.2619 185.145C14.097 189.857 14.6209 193.338 13.3565 211.07C12.0922 228.802 13.4098 257.658 12.2368 274.272C10.6677 296.495 11.4937 301.274 11.1707 304.799C10.4513 312.652 9.22029 328.45 8.15483 340.518C7.50707 347.855 6.3595 361.184 5.66249 370.161C4.6176 383.619 3.95146 392.606 3.70276 402C3.17212 422.046 3.17028 431.951 3.2234 438.216C3.27839 444.702 3.09595 453.21 3.33078 458.41C3.47294 461.558 3.75967 464.907 3.92855 470.264C4.39147 484.949 4.08095 495.339 3.37711 500.584C2.89361 504.187 2.29484 507.725 1.74765 511.763C1.30141 515.056 0.76782 519.311 1.10814 523.2C1.41085 526.66 0.118855 531.393 2.63557 532.66C3.76406 533.228 8.74943 533.635 19.9187 534.269C28.9073 534.778 36.4585 535.008 43.4259 535.287C54.6023 535.734 61.9834 536.171 63.5194 536.27C67.2554 536.511 77.5632 537.363 91.5767 537.03C97.2105 536.896 104.957 536.44 122.146 537.412C128.661 537.78 136.402 538.195 144.455 538.139C154.381 538.069 167.071 538.018 177.526 538.416C186.352 538.752 192.128 539.182 200.513 539.443C208.121 539.68 222.141 540.006 233.914 540.392C245.688 540.779 254.934 541.212 260.098 541.505C265.262 541.798 266.31 541.946 273.97 542.213C281.63 542.481 295.482 542.856 303.551 543.056C311.619 543.255 313.838 543.248 320.62 543.602C338.419 544.533 350.164 545.431 353.131 545.521C359.031 545.7 369.076 546.126 379.922 546.544C395.225 547.133 406.356 546.323 416.145 546.792C427.361 547.328 431.709 547.669 441.113 549.07C446.766 549.912 451.976 550.93 462.339 551.407C477.405 552.1 489.62 552.614 494.701 553.155C504.075 554.153 511.62 555.259 517.841 555.025C522.389 554.853 528.237 557.236 529.426 554.327C531.958 548.128 533.078 534.056 533.747 522.519C533.889 520.082 533.978 519.104 535.819 494.991C537.661 470.879 541.148 425.022 542.959 399.343C544.771 373.663 544.903 368.323 544.997 364.022C545.092 359.721 545.149 356.555 545.203 353.396C545.31 347.18 545.656 337.099 546.239 323.874L546.325 321.909C546.82 310.647 547.202 301.97 547.955 290.882C548.542 282.257 549.52 268.526 550.027 260.341C550.535 252.156 550.586 249.594 550.576 247.835C550.56 245.148 551.036 232.037 550.574 213.92C550.368 205.853 550.319 202.345 550.248 197.249L550.232 196.165C550.153 190.519 549.816 186.555 550.07 179.573C550.834 158.518 550.695 153.022 550.871 145.654C551.047 138.284 550.826 130.038 551.025 115.274C551.131 107.412 551.336 94.5833 551.167 87.5516C550.922 77.3241 550.86 74.2429 550.86 63.2718C550.861 52.3292 550.801 41.2197 551.249 33.3757C551.692 25.6127 553.049 21.5533 550.432 19.6831C549.225 18.8201 540.244 17.9695 515.317 16.7855C508.852 16.4784 503.171 16.2809 496.931 15.9511C490.692 15.6213 484.093 15.1727 470.535 14.5069C456.977 13.841 437.062 12.9838 405.837 12.1851C374.611 11.3863 333.327 10.6677 300.444 9.74102C267.562 8.81428 243.8 7.71276 231.354 7.19943C218.909 6.6861 217.812 6.75876 202.684 6.17501C187.555 5.59126 159.252 4.38757 143.834 3.71339C128.416 3.03922 125.957 2.89882 112.605 2.89114C99.2529 2.88347 75.7204 3.00485 59.6376 2.74623C43.5549 2.48761 35.1785 1.82313 29.9763 1.52258Z" fill="white"/>
<path d="M29.9763 1.52258C22.8165 1.10894 20.8001 1.03852 20.6911 1.03472L20.5828 4.13865C20.6714 5.59515 20.3418 6.20143 20.4346 8.38099C20.8732 11.8722 19.6509 15.2826 20.0889 18.2798C20.5176 21.2125 19.087 27.5685 19.6116 31.9495C20.0227 35.3834 19.1537 41.4092 19.1671 44.6765C19.1907 50.4262 18.9787 59.5956 17.9984 78.1438C17.7525 82.798 17.7845 95.4827 16.8462 111.14C15.9079 126.797 16.0304 143.05 15.1672 159.219C14.304 175.389 14.4268 180.432 14.2619 185.145C14.097 189.857 14.6209 193.338 13.3565 211.07C12.0922 228.802 13.4098 257.658 12.2368 274.272C10.6677 296.495 11.4937 301.274 11.1707 304.799C10.4513 312.652 9.22029 328.45 8.15483 340.518C7.50707 347.855 6.3595 361.184 5.66249 370.161C4.6176 383.619 3.95146 392.606 3.70276 402C3.17212 422.046 3.17028 431.951 3.2234 438.216C3.27839 444.702 3.09595 453.21 3.33078 458.41C3.47294 461.558 3.75967 464.907 3.92855 470.264C4.39147 484.949 4.08095 495.339 3.37711 500.584C2.89361 504.187 2.29484 507.725 1.74765 511.763C1.30141 515.056 0.76782 519.311 1.10814 523.2C1.41085 526.66 0.118855 531.393 2.63557 532.66C3.76406 533.228 8.74943 533.635 19.9187 534.269C28.9073 534.778 36.4585 535.008 43.4259 535.287C54.6023 535.734 61.9834 536.171 63.5194 536.27C67.2554 536.511 77.5632 537.363 91.5767 537.03C97.2105 536.896 104.957 536.44 122.146 537.412C128.661 537.78 136.402 538.195 144.455 538.139C154.381 538.069 167.071 538.018 177.526 538.416C186.352 538.752 192.128 539.182 200.513 539.443C208.121 539.68 222.141 540.006 233.914 540.392C245.688 540.779 254.934 541.212 260.098 541.505C265.262 541.798 266.31 541.946 273.97 542.213C281.63 542.481 295.482 542.856 303.551 543.056C311.619 543.255 313.838 543.248 320.62 543.602C338.419 544.533 350.164 545.431 353.131 545.521C359.031 545.7 369.076 546.126 379.922 546.544C395.225 547.133 406.356 546.323 416.145 546.792C427.361 547.328 431.709 547.669 441.113 549.07C446.766 549.912 451.976 550.93 462.339 551.407C477.405 552.1 489.62 552.614 494.701 553.155C504.075 554.153 511.62 555.259 517.841 555.025C522.389 554.853 528.237 557.236 529.426 554.327C531.958 548.128 533.078 534.056 533.747 522.519C533.889 520.082 533.978 519.104 535.819 494.991C537.661 470.879 541.148 425.022 542.959 399.343C544.771 373.663 544.903 368.323 544.997 364.022C545.092 359.721 545.149 356.555 545.203 353.396C545.31 347.18 545.656 337.099 546.239 323.874L546.325 321.909C546.82 310.647 547.202 301.97 547.955 290.882C548.542 282.257 549.52 268.526 550.027 260.341C550.535 252.156 550.586 249.594 550.576 247.835C550.56 245.148 551.036 232.037 550.574 213.92C550.368 205.853 550.319 202.345 550.248 197.249L550.232 196.165C550.153 190.519 549.816 186.555 550.07 179.573C550.834 158.518 550.695 153.022 550.871 145.654C551.047 138.284 550.826 130.038 551.025 115.274C551.131 107.412 551.336 94.5833 551.167 87.5516C550.922 77.3241 550.86 74.2429 550.86 63.2718C550.861 52.3292 550.801 41.2197 551.249 33.3757C551.692 25.6127 553.049 21.5533 550.432 19.6831C549.225 18.8201 540.244 17.9695 515.317 16.7855C508.852 16.4784 503.171 16.2809 496.931 15.9511C490.692 15.6213 484.093 15.1727 470.535 14.5069C456.977 13.841 437.062 12.9838 405.837 12.1851C374.611 11.3863 333.327 10.6677 300.444 9.74102C267.562 8.81428 243.8 7.71276 231.354 7.19943C218.909 6.6861 217.812 6.75876 202.684 6.17501C187.555 5.59126 159.252 4.38757 143.834 3.71339C128.416 3.03922 125.957 2.89882 112.605 2.89114C99.2529 2.88347 75.7204 3.00485 59.6376 2.74623C43.5549 2.48761 35.1785 1.82313 29.9763 1.52258Z" stroke="black" stroke-width="2" stroke-linecap="round"/>
</g>
<defs>
<filter id="filter0_d_35_348" x="0" y="0" width="561" height="564.785" filterUnits="userSpaceOnUse" color-interpolation-filters="sRGB">
<feFlood flood-opacity="0" result="BackgroundImageFix"/>
<feColorMatrix in="SourceAlpha" type="matrix" values="0 0 0 0 0 0 0 0 0 0 0 0 0 0 0 0 0 0 127 0" result="hardAlpha"/>
<feOffset dx="8" dy="8"/>
<feComposite in2="hardAlpha" operator="out"/>
<feColorMatrix type="matrix" values="0 0 0 0 0 0 0 0 0 0 0 0 0 0 0 0 0 0 0.64 0"/>
<feBlend mode="normal" in2="BackgroundImageFix" result="effect1_dropShadow_35_348"/>
<feBlend mode="normal" in="SourceGraphic" in2="effect1_dropShadow_35_348" result="shape"/>
</filter>
</defs>
</svg>
